<svg width="327" height="327" viewBox="0 0 327 327" fill="none" xmlns="http://www.w3.org/2000/svg">
<path d="M149.02 163.982L194.46 201.321C195.556 202.222 196.93 202.714 198.348 202.714C199.767 202.714 201.141 202.222 202.237 201.321C205.219 198.871 205.219 194.307 202.237 191.857L153.203 151.565C152.024 150.596 150.546 150.067 149.02 150.067C147.494 150.067 146.016 150.596 144.837 151.565L95.8024 191.857C92.8204 194.307 92.8204 198.871 95.8024 201.321C96.8982 202.222 98.2725 202.714 99.6909 202.714C101.109 202.714 102.484 202.222 103.579 201.321L149.02 163.982Z" stroke="#72BCFF" stroke-width="3.60647" stroke-miterlimit="10" stroke-linecap="round" stroke-linejoin="round"/>
<path d="M149.02 163.982L111.673 194.671L114.902 256.49H183.137L186.367 194.671L149.02 163.982Z" stroke="#72BCFF" stroke-width="3.60647" stroke-miterlimit="10" stroke-linecap="round" stroke-linejoin="round"/>
<path d="M149.02 203.776C135.722 203.776 125.277 212.717 125.678 223.409L126.917 256.49H171.122L172.361 223.409C172.763 212.717 162.318 203.776 149.02 203.776ZM142.232 192.936C142.857 194.372 144.515 195.024 145.968 194.44C146.896 194.068 147.93 193.859 149.02 193.859C150.111 193.859 151.145 194.068 152.072 194.44C153.525 195.024 155.184 194.372 155.809 192.936C156.112 192.244 156.268 191.496 156.269 190.741C156.269 187.287 153.023 184.488 149.02 184.488C145.017 184.488 141.772 187.287 141.772 190.741C141.772 191.513 141.934 192.253 142.232 192.936Z" stroke="#72BCFF" stroke-width="3.60647" stroke-miterlimit="10" stroke-linecap="round" stroke-linejoin="round"/>
<path d="M141.638 183.398C142.743 182.531 143.041 181.067 142.305 180.129C141.568 179.19 140.076 179.133 138.971 180C137.866 180.867 137.567 182.331 138.304 183.269C139.041 184.208 140.533 184.265 141.638 183.398Z" stroke="#72BCFF" stroke-width="3.60647" stroke-miterlimit="10" stroke-linecap="round" stroke-linejoin="round"/>
<path d="M149.02 181.008C150.865 181.008 152.36 179.994 152.36 178.743C152.36 177.492 150.865 176.477 149.02 176.477C147.176 176.477 145.68 177.492 145.68 178.743C145.68 179.994 147.176 181.008 149.02 181.008Z" stroke="#72BCFF" stroke-width="3.60647" stroke-miterlimit="10" stroke-linecap="round" stroke-linejoin="round"/>
<path d="M158.948 184.149C159.685 183.21 159.386 181.746 158.281 180.879C157.176 180.012 155.684 180.07 154.947 181.008C154.21 181.947 154.509 183.411 155.614 184.278C156.719 185.145 158.211 185.087 158.948 184.149Z" stroke="#72BCFF" stroke-width="3.60647" stroke-miterlimit="10" stroke-linecap="round" stroke-linejoin="round"/>
<path d="M61.6396 256.44H65.4001" stroke="#00354C" stroke-width="3.60647" stroke-miterlimit="10" stroke-linecap="round" stroke-linejoin="round"/>
<path d="M161.919 204.651C162.865 198.954 165.114 192.436 167.816 186.964C164.102 193.033 160.736 201.707 159.521 209.026C157.669 220.178 158.268 230.421 161.118 236.924L162.825 230.769C160.582 224.256 160.228 214.833 161.919 204.651Z" fill="#D1D1D1"/>
<path d="M83.5157 148.531C74.1619 147.887 73.8349 158.678 75.4699 165.872C76.1239 169.796 71.8729 172.085 69.9488 175.08C69.1173 176.393 68.392 177.933 67.9842 179.878C66.9107 185.081 69.9639 189.502 70.4655 194.246C70.5907 195.432 70.5567 196.639 70.2588 197.882C69.9109 199.226 69.2569 200.534 68.6029 201.842C63.3709 207.728 54.8689 214.595 60.7549 222.443C61.8049 223.782 62.9888 225.01 64.2881 226.109C74.4889 234.869 89.8579 234.215 101.63 228.656C105.881 226.367 110.132 223.097 111.113 218.192C111.767 212.96 109.478 208.055 105.993 204.598C104.961 203.447 103.83 202.388 102.614 201.435C101.75 200.14 101.243 198.895 100.99 197.686C100.358 194.662 101.31 191.853 102.218 189.013C102.673 187.593 103.116 186.164 103.346 184.697C104.573 177.317 97.3789 172.739 93.4549 167.507C91.8199 165.218 92.4739 162.275 93.1279 159.659C94.4359 153.446 89.5309 148.214 83.6668 148.532" fill="#01D392"/>
<path d="M84.9863 179.492C83.4981 186.58 83.1629 193.557 83.367 200.527C83.418 202.27 87.8963 231.272 85.0438 243.962C84.9879 245.807 84.9879 246.859 84.9879 246.859M89.8579 206.911L84.9919 213.941" stroke="#00354C" stroke-width="3.60647" stroke-miterlimit="10" stroke-linecap="round" stroke-linejoin="round"/>
<path d="M92.8085 257.421H77.7514C77.5641 257.421 77.4015 257.292 77.3584 257.11L73.5079 240.81H97.052L93.2015 257.11C93.1806 257.199 93.1304 257.278 93.0591 257.334C92.9877 257.391 92.8994 257.421 92.8085 257.421Z" fill="#4FA7F6"/>
<path opacity="0.68" d="M75.8707 249.83H94.6895M76.1473 251.001H94.4129" stroke="#4FA7F6" stroke-width="0.601078" stroke-miterlimit="10"/>
<path d="M164.614 252.767V256.364" stroke="#00354C" stroke-width="3.60647" stroke-miterlimit="10" stroke-linecap="round" stroke-linejoin="round"/>
<path d="M62.243 198.376C64.167 198.376 65.7268 195.821 65.7268 192.67C65.7268 189.518 64.167 186.964 62.243 186.964C60.3189 186.964 58.7591 189.518 58.7591 192.67C58.7591 195.821 60.3189 198.376 62.243 198.376Z" fill="#01D392"/>
<path d="M260.409 218.215L263.645 221.451L260.409 224.688L257.172 221.451L260.409 218.215Z" fill="#01D392"/>
<path d="M238.59 124.624L240.671 126.706L238.59 128.787L236.509 126.705L238.59 124.624Z" fill="#01D392"/>
<path d="M74.2631 83.7983V88.4784M74.2631 94.4147V99.0951M67.6394 87.6226L71.6926 89.9626M76.8337 92.9308L80.8868 95.2708M67.6394 95.2708L71.6926 92.9308M76.8337 89.9626L80.8868 87.6226M278.977 103.787V107.035M278.977 111.155V114.403M274.38 106.441L277.192 108.065M280.761 110.125L283.574 111.749M274.38 111.749L277.192 110.125M280.761 108.065L283.574 106.441" stroke="#00354C" stroke-width="1.80323" stroke-miterlimit="10" stroke-linecap="round" stroke-linejoin="round"/>
<path d="M253.93 156.928C256.663 156.928 258.879 154.712 258.879 151.979C258.879 149.245 256.663 147.03 253.93 147.03C251.197 147.03 248.981 149.245 248.981 151.979C248.981 154.712 251.197 156.928 253.93 156.928Z" fill="#4FA7F6"/>
<path d="M253.93 144.799V148.761M253.93 155.196V159.158M247.712 148.389L251.144 150.37M256.716 153.588L260.148 155.569M247.712 155.784L251.144 153.588M256.716 150.37L260.148 148.389" stroke="#00354C" stroke-width="1.80323" stroke-miterlimit="10" stroke-linecap="round" stroke-linejoin="round"/>
<path d="M180.014 46.0763V50.8724M182.412 48.4742H177.616M290.921 214.225V219.021M293.319 216.623H288.523M122.68 129.497V132.44M124.151 130.969H121.208" stroke="#00354C" stroke-width="2.40431" stroke-miterlimit="10" stroke-linecap="round" stroke-linejoin="round"/>
<path d="M109.008 152.481L111.326 154.799L109.008 157.117L106.69 154.799L109.008 152.481Z" fill="#4FA7F6"/>
<path d="M36.672 141.013H45.2799M48.2229 141.013H51.5348M41.4553 145.184H51.0221M223.728 181.516H232.336M235.279 181.516H238.591M228.511 185.033H238.077" stroke="#00354C" stroke-width="2.40431" stroke-miterlimit="10" stroke-linecap="round" stroke-linejoin="round"/>
<path d="M250.155 256.44H263.646M72.2672 256.44H99.2993" stroke="#00354C" stroke-width="3.60647" stroke-miterlimit="10" stroke-linecap="round" stroke-linejoin="round"/>
<path d="M229.054 79.9188C238.399 79.9188 245.975 72.3429 245.975 62.9975C245.975 53.6522 238.399 46.0763 229.054 46.0763C219.708 46.0763 212.132 53.6522 212.132 62.9975C212.132 72.3429 219.708 79.9188 229.054 79.9188Z" fill="#4FA7F6"/>
<path d="M245.976 66.5108C255.321 66.5108 262.897 58.9349 262.897 49.5896C262.897 40.2442 255.321 32.6683 245.976 32.6683C236.63 32.6683 229.054 40.2442 229.054 49.5896C229.054 58.9349 236.63 66.5108 245.976 66.5108Z" fill="#4FA7F6"/>
<path d="M269.427 71.1003C277.955 71.1003 284.869 64.1867 284.869 55.6584C284.869 47.13 277.955 40.2164 269.427 40.2164C260.898 40.2164 253.985 47.13 253.985 55.6584C253.985 64.1867 260.898 71.1003 269.427 71.1003Z" fill="#4FA7F6"/>
<path d="M245.975 89.4378C255.282 89.4378 262.827 81.8931 262.827 72.5862C262.827 63.2793 255.282 55.7346 245.975 55.7346C236.668 55.7346 229.124 63.2793 229.124 72.5862C229.124 81.8931 236.668 89.4378 245.975 89.4378Z" fill="#4FA7F6"/>
<path d="M263.889 83.7983C270.081 83.7983 275.101 78.7785 275.101 72.5862C275.101 66.3939 270.081 61.374 263.889 61.374C257.697 61.374 252.677 66.3939 252.677 72.5862C252.677 78.7785 257.697 83.7983 263.889 83.7983Z" fill="#4FA7F6"/>
<path d="M228.509 107.133C228.509 109.692 227.869 111.218 225.31 111.218C222.752 111.218 220.677 110.241 220.677 107.682C220.677 105.123 222.035 102.852 224.593 102.852C227.152 102.852 228.509 104.575 228.509 107.133ZM237.704 94.4147C237.704 98.2576 236.743 100.549 232.9 100.549C229.057 100.549 225.942 99.081 225.942 95.2381C225.942 91.3952 229.057 88.2799 232.9 88.2799C236.743 88.2799 237.704 90.5718 237.704 94.4147Z" fill="#4FA7F6"/>
<path d="M234.472 209.343C234.54 210.216 234.576 211.098 234.576 211.989C234.576 230.278 219.863 245.104 201.713 245.104C186.467 245.104 173.647 234.642 169.934 220.454C171.272 237.506 185.427 250.923 202.694 250.923C220.844 250.923 235.557 236.097 235.557 217.808C235.557 214.882 235.179 212.045 234.472 209.343Z" fill="white"/>
<path d="M234.472 209.343C234.54 210.216 234.576 211.098 234.576 211.989C234.576 230.278 219.863 245.104 201.713 245.104C186.467 245.104 173.647 234.642 169.934 220.454C171.272 237.506 185.427 250.923 202.694 250.923C220.844 250.923 235.557 236.097 235.557 217.808C235.557 214.882 235.179 212.045 234.472 209.343Z" stroke="#00354C" stroke-width="3.60647" stroke-miterlimit="10" stroke-linecap="round" stroke-linejoin="round"/>
<path d="M177.014 179.604C171.466 177.132 161.78 195.423 159.521 209.025C157.669 220.178 158.268 230.421 161.118 236.924L177.014 179.604Z" fill="white"/>
<path d="M177.014 179.604C171.466 177.132 161.78 195.423 159.521 209.025C157.669 220.178 158.268 230.421 161.118 236.924L177.014 179.604Z" stroke="#00354C" stroke-width="3.60647" stroke-miterlimit="10" stroke-linecap="round" stroke-linejoin="round"/>
<path d="M194.143 179.604C199.691 177.132 209.377 195.423 211.636 209.025C213.488 220.178 212.889 230.421 210.039 236.924L194.143 179.604Z" fill="white"/>
<path d="M209.238 204.651C208.292 198.954 206.043 192.436 203.341 186.964C207.055 193.033 210.42 201.707 211.636 209.026C213.488 220.178 212.889 230.421 210.039 236.924L208.332 230.769C210.575 224.256 210.929 214.833 209.238 204.651Z" fill="#D1D1D1"/>
<path d="M194.143 179.604C199.691 177.132 209.377 195.423 211.636 209.025C213.488 220.178 212.889 230.421 210.039 236.924L194.143 179.604Z" stroke="#00354C" stroke-width="3.60647" stroke-miterlimit="10" stroke-linecap="round" stroke-linejoin="round"/>
<path d="M211.01 239.364C210.66 233.925 196.527 175.017 192.685 172.074H178.679C174.837 175.017 160.703 233.925 160.353 239.364C159.918 246.121 157.694 256.44 170.552 256.44H200.813C213.67 256.44 211.446 246.121 211.01 239.364Z" fill="white"/>
<path d="M161.922 231.033C161.922 231.033 160.918 239.664 165.737 242.848C169.528 245.352 172.858 246.368 179.119 247.527C182.472 248.147 186.145 248.407 186.145 248.407L186.554 256.159L159.934 256.363C159.934 256.363 159.478 245.464 160.127 242.194C160.775 238.923 161.107 233.498 161.922 231.033Z" fill="#D1D1D1"/>
<path d="M209.725 231.033C209.725 231.033 210.728 239.664 205.909 242.848C202.119 245.352 198.789 246.368 192.528 247.527C189.175 248.147 185.501 248.407 185.501 248.407L185.093 256.159L211.712 256.363C211.712 256.363 212.168 245.464 211.52 242.194C210.871 238.923 210.54 233.498 209.725 231.033Z" fill="#D1D1D1"/>
<path d="M197.392 183.947C196.564 183.723 195.779 183.601 195.091 183.601C191.118 183.601 187.915 185.717 187.915 190.64C187.915 195.562 195.091 201.428 199.064 201.428C200.138 201.428 201.156 201.134 202.071 200.611C200.479 194.562 198.861 188.743 197.392 183.947ZM167.138 226.313C171.559 226.313 175.142 221.97 175.142 216.612C175.142 211.465 171.836 207.257 167.657 206.933C166.027 213.343 164.492 219.702 163.253 225.093C164.403 225.869 165.728 226.313 167.138 226.313Z" fill="#4FA7F6"/>
<path d="M177.688 173.484C177.688 173.484 180.014 175.349 185.355 175.349C189.661 175.349 193.469 173.484 193.469 173.484L193.153 172.203L177.946 172.19L177.688 173.484Z" fill="#D1D1D1"/>
<path d="M211.01 239.364C210.66 233.925 196.527 175.017 192.685 172.074H178.679C174.837 175.017 160.703 233.925 160.353 239.364C159.918 246.121 157.694 256.44 170.552 256.44H200.813C213.67 256.44 211.446 246.121 211.01 239.364Z" stroke="#00354C" stroke-width="3.60647" stroke-miterlimit="10" stroke-linecap="round" stroke-linejoin="round"/>
<path d="M210.247 148.531C209.616 142.143 206.501 126.042 202.967 114.746C197.327 96.7162 190.74 92.0165 186.919 91.5447C186.512 91.4943 185.682 91.4662 185.682 91.4662C185.682 91.4662 184.852 91.4776 184.445 91.5277C180.624 91.9995 174.037 96.6733 168.397 114.704C164.863 126 161.748 142.145 161.117 148.532C159.698 162.906 166.616 170.861 175.558 171.997C178.115 172.323 183.151 172.324 185.682 172.324C188.213 172.324 193.249 172.323 195.806 171.997C204.748 170.861 211.666 162.905 210.247 148.531Z" fill="white"/>
<path d="M185.682 161.698C189.1 161.698 191.87 159.524 191.87 156.841C191.87 154.158 189.1 151.984 185.682 151.984C182.265 151.984 179.494 154.158 179.494 156.841C179.494 159.524 182.265 161.698 185.682 161.698Z" fill="#D1D1D1"/>
<path d="M180.014 93.3543C180.014 93.3543 177.071 104.438 170.912 107.644C172.472 104.107 174.607 99.8943 174.607 99.8943C174.607 99.8943 178.27 93.8448 180.014 93.3543ZM186.919 91.5447C186.919 91.5447 194.892 105.289 201.549 110.538C201.549 110.538 200.042 100.793 198.571 97.8502C197.099 94.9072 189.9 90.6346 186.919 91.5447Z" fill="#D1D1D1"/>
<path d="M169.978 144.319C182.837 138.78 190.508 127.896 187.11 120.008C184.73 114.48 177.542 111.897 169.03 112.749C168.812 113.398 168.601 114.05 168.397 114.704C165.125 125.163 162.213 139.775 161.299 146.953C164.13 146.445 167.062 145.575 169.978 144.319Z" fill="#4FA7F6"/>
<path d="M204.093 159.267C200.447 164.582 192.43 168.208 183.88 168.208C175.981 168.208 171.221 163.552 168.431 157.794" stroke="#00354C" stroke-width="3.60647" stroke-miterlimit="10" stroke-linecap="round" stroke-linejoin="round"/>
<path d="M185.682 159.989C189.955 159.989 193.418 158.197 193.418 155.987C193.418 153.776 189.955 151.984 185.682 151.984C181.409 151.984 177.945 153.776 177.945 155.987C177.945 158.197 181.409 159.989 185.682 159.989Z" fill="#00354C"/>
<path d="M228.208 254.371C223.236 249.691 213.699 247.387 204.359 248.088C196.365 248.689 190.46 251.391 188.132 254.981C187.732 255.599 188.225 256.436 188.988 256.436L226.74 256.44C228.256 256.441 229.128 255.237 228.208 254.371Z" fill="white"/>
<path d="M227.943 254.294C227.829 254.338 227.708 254.361 227.586 254.361L189.833 254.365C189.382 254.365 188.99 254.257 188.684 254.085C188.577 254.179 188.469 254.274 188.366 254.37C187.446 255.236 188.318 256.44 189.833 256.44L227.585 256.435C228.349 256.435 228.842 255.599 228.441 254.981C228.287 254.744 228.12 254.514 227.943 254.294Z" fill="#D1D1D1"/>
<path d="M207.778 252.767V256.364M228.208 254.371C223.236 249.691 213.699 247.387 204.359 248.088C196.365 248.689 190.46 251.391 188.132 254.981C187.732 255.599 188.225 256.436 188.988 256.436L226.74 256.44C228.256 256.441 229.128 255.237 228.208 254.371Z" stroke="#00354C" stroke-width="3.60647" stroke-miterlimit="10" stroke-linecap="round" stroke-linejoin="round"/>
<path d="M144.221 254.371C149.193 249.691 158.73 247.387 168.07 248.088C176.063 248.689 181.969 251.391 184.297 254.981C184.697 255.599 184.204 256.436 183.441 256.436L145.688 256.44C144.173 256.441 143.301 255.237 144.221 254.371Z" fill="white"/>
<path d="M183.798 254.294C183.684 254.338 183.563 254.361 183.441 254.361L145.688 254.365C145.237 254.365 144.845 254.257 144.539 254.085C144.432 254.179 144.324 254.274 144.221 254.37C143.301 255.236 144.173 256.44 145.688 256.44L183.44 256.435C184.204 256.435 184.697 255.599 184.296 254.981C184.142 254.744 183.975 254.514 183.798 254.294Z" fill="#D1D1D1"/>
<path d="M144.221 254.371C149.193 249.691 158.73 247.387 168.07 248.088C176.063 248.689 181.969 251.391 184.297 254.981C184.697 255.599 184.204 256.436 183.441 256.436L145.688 256.44C144.173 256.441 143.301 255.237 144.221 254.371ZM210.247 148.531C209.616 142.143 206.501 126.042 202.967 114.746C197.327 96.7162 190.74 92.0165 186.919 91.5447C186.512 91.4943 185.682 91.4662 185.682 91.4662C185.682 91.4662 184.852 91.4776 184.445 91.5277C180.624 91.9995 174.037 96.6733 168.397 114.704C164.863 126 161.748 142.145 161.117 148.532C159.698 162.906 166.616 170.861 175.558 171.997C178.115 172.323 183.151 172.324 185.682 172.324C188.213 172.324 193.249 172.323 195.806 171.997C204.748 170.861 211.666 162.905 210.247 148.531Z" stroke="#00354C" stroke-width="3.60647" stroke-miterlimit="10" stroke-linecap="round" stroke-linejoin="round"/>
<path d="M186.323 91.3854C186.323 91.3854 197.726 88.9594 200.88 90.4256C204.115 91.9295 209.977 103.394 207.556 107.887C203.848 114.769 192.995 89.9299 186.323 91.3854Z" fill="white"/>
<path d="M186.323 91.3854C186.323 91.3854 197.726 88.9594 200.88 90.4256C204.115 91.9295 209.977 103.394 207.556 107.887C203.848 114.769 192.995 89.9299 186.323 91.3854Z" stroke="#00354C" stroke-width="3.60647" stroke-miterlimit="10" stroke-linecap="round" stroke-linejoin="round"/>
<path d="M164.893 93.4537L180.695 93.0008C180.695 93.0008 166.046 108.747 159.287 112.151C152.528 115.555 159.435 93.4105 164.893 93.4537Z" fill="white"/>
<path d="M164.893 93.4537L180.695 93.0008C180.695 93.0008 166.046 108.747 159.287 112.151C152.528 115.555 159.435 93.4105 164.893 93.4537Z" stroke="#00354C" stroke-width="3.60647" stroke-miterlimit="10" stroke-linecap="round" stroke-linejoin="round"/>
<path d="M179.416 128.834C180.325 128.834 181.063 127.882 181.063 126.708C181.063 125.534 180.325 124.583 179.416 124.583C178.506 124.583 177.769 125.534 177.769 126.708C177.769 127.882 178.506 128.834 179.416 128.834Z" fill="#00354C"/>
<path d="M193.231 128.834C194.141 128.834 194.879 127.882 194.879 126.708C194.879 125.534 194.141 124.583 193.231 124.583C192.322 124.583 191.584 125.534 191.584 126.708C191.584 127.882 192.322 128.834 193.231 128.834Z" fill="#00354C"/>
<path d="M128.293 256.44H241.653" stroke="#00354C" stroke-width="3.60647" stroke-miterlimit="10" stroke-linecap="round" stroke-linejoin="round"/>
<path d="M218.495 113.456C218.495 115.283 218.039 116.373 216.211 116.373C214.384 116.373 212.902 115.675 212.902 113.847C212.902 112.02 214.384 110.538 216.211 110.538C218.039 110.538 218.495 111.628 218.495 113.456Z" fill="#4FA7F6"/>
<path d="M234.797 67.09C233.681 67.09 232.817 66.976 232.205 66.748C231.605 66.52 231.185 66.166 230.945 65.686C230.705 65.194 230.567 64.576 230.531 63.832L230.153 53.824L232.673 53.824L233.051 62.626C233.075 63.178 233.135 63.592 233.231 63.868C233.327 64.144 233.507 64.33 233.771 64.426C234.047 64.522 234.449 64.57 234.977 64.57C235.433 64.57 235.757 64.69 235.949 64.93C236.153 65.158 236.255 65.446 236.255 65.794C236.255 66.166 236.129 66.478 235.877 66.73C235.625 66.97 235.265 67.09 234.797 67.09ZM234.821 67.09L235.001 64.57C235.457 64.57 235.817 64.528 236.081 64.444C236.357 64.36 236.573 64.192 236.729 63.94C236.897 63.676 237.035 63.292 237.143 62.788C237.263 62.284 237.383 61.612 237.503 60.772L239.861 61.168C239.837 61.348 239.801 61.558 239.753 61.798C239.717 62.038 239.681 62.284 239.645 62.536C239.621 62.776 239.609 63.004 239.609 63.22C239.609 63.508 239.669 63.754 239.789 63.958C239.921 64.15 240.149 64.3 240.473 64.408C240.809 64.516 241.289 64.57 241.913 64.57C242.369 64.57 242.693 64.69 242.885 64.93C243.077 65.158 243.173 65.446 243.173 65.794C243.173 66.166 243.047 66.478 242.795 66.73C242.555 66.97 242.201 67.09 241.733 67.09C240.905 67.09 240.233 67.012 239.717 66.856C239.201 66.7 238.817 66.436 238.565 66.064C238.313 65.692 238.151 65.182 238.079 64.534L238.943 64.534C238.727 65.11 238.475 65.572 238.187 65.92C237.899 66.256 237.575 66.508 237.215 66.676C236.855 66.844 236.471 66.952 236.063 67C235.667 67.06 235.253 67.09 234.821 67.09ZM238.025 71.23C237.677 71.23 237.377 71.11 237.125 70.87C236.885 70.63 236.765 70.336 236.765 69.988C236.765 69.64 236.885 69.334 237.125 69.07C237.377 68.818 237.677 68.692 238.025 68.692C238.373 68.692 238.667 68.818 238.907 69.07C239.159 69.334 239.285 69.64 239.285 69.988C239.285 70.336 239.159 70.63 238.907 70.87C238.667 71.11 238.373 71.23 238.025 71.23ZM241.729 67.09L241.909 64.57C242.557 64.57 243.199 64.534 243.835 64.462C244.471 64.39 245.089 64.282 245.689 64.138C246.289 63.994 246.859 63.808 247.399 63.58C247.951 63.352 248.467 63.076 248.947 62.752C248.587 62.536 248.197 62.35 247.777 62.194C247.357 62.038 246.907 61.924 246.427 61.852C245.959 61.768 245.461 61.726 244.933 61.726C244.741 61.726 244.537 61.732 244.321 61.744C244.117 61.756 243.907 61.78 243.691 61.816C243.475 61.84 243.259 61.876 243.043 61.924L242.683 59.458C243.031 59.362 243.397 59.296 243.781 59.26C244.177 59.212 244.525 59.188 244.825 59.188C245.473 59.188 246.067 59.26 246.607 59.404C247.159 59.548 247.663 59.728 248.119 59.944C248.587 60.16 249.019 60.376 249.415 60.592C249.823 60.808 250.207 60.988 250.567 61.132C250.939 61.276 251.299 61.348 251.647 61.348L252.313 61.348L252.601 63.742C252.085 63.766 251.599 63.868 251.143 64.048C250.699 64.216 250.255 64.432 249.811 64.696C249.379 64.948 248.911 65.212 248.407 65.488C247.915 65.764 247.357 66.022 246.733 66.262C246.109 66.502 245.389 66.7 244.573 66.856C243.757 67.012 242.809 67.09 241.729 67.09ZM252.617 71.158L251.699 68.926C252.335 68.71 252.917 68.458 253.445 68.17C253.985 67.882 254.453 67.564 254.849 67.216C255.245 66.868 255.551 66.49 255.767 66.082C255.983 65.662 256.091 65.212 256.091 64.732C256.091 64.228 255.977 63.676 255.749 63.076C255.521 62.476 255.245 61.864 254.921 61.24L257.279 60.106C257.495 60.478 257.681 60.88 257.837 61.312C258.005 61.732 258.143 62.11 258.251 62.446C258.359 62.782 258.431 63.01 258.467 63.13C258.635 63.706 258.863 64.09 259.151 64.282C259.451 64.474 259.931 64.57 260.591 64.57C261.047 64.57 261.371 64.69 261.563 64.93C261.767 65.158 261.869 65.446 261.869 65.794C261.869 66.166 261.743 66.478 261.491 66.73C261.239 66.97 260.879 67.09 260.411 67.09C259.919 67.09 259.487 67.018 259.115 66.874C258.743 66.73 258.443 66.52 258.215 66.244C257.999 65.968 257.861 65.644 257.801 65.272L258.467 65.65C258.395 66.286 258.185 66.886 257.837 67.45C257.501 68.026 257.063 68.554 256.523 69.034C255.983 69.514 255.377 69.934 254.705 70.294C254.033 70.654 253.337 70.942 252.617 71.158ZM260.433 67.09L260.613 64.57C260.889 64.57 261.123 64.504 261.315 64.372C261.519 64.228 261.729 63.994 261.945 63.67C262.161 63.334 262.413 62.884 262.701 62.32C263.061 61.6 263.433 61.036 263.817 60.628C264.213 60.22 264.615 59.932 265.023 59.764C265.443 59.584 265.863 59.494 266.283 59.494C266.811 59.494 267.303 59.608 267.759 59.836C268.215 60.064 268.611 60.376 268.947 60.772C269.283 61.156 269.541 61.6 269.721 62.104C269.913 62.596 270.009 63.106 270.009 63.634C270.009 64.27 269.871 64.846 269.595 65.362C269.331 65.866 268.959 66.268 268.479 66.568C268.011 66.856 267.471 67 266.859 67C266.343 67 265.743 66.91 265.059 66.73C264.375 66.55 263.655 66.172 262.899 65.596L263.817 63.418C264.357 63.79 264.861 64.06 265.329 64.228C265.809 64.396 266.205 64.48 266.517 64.48C266.757 64.48 266.955 64.456 267.111 64.408C267.267 64.36 267.381 64.282 267.453 64.174C267.525 64.066 267.561 63.922 267.561 63.742C267.561 63.49 267.501 63.232 267.381 62.968C267.261 62.704 267.099 62.482 266.895 62.302C266.703 62.11 266.475 62.014 266.211 62.014C265.959 62.014 265.743 62.11 265.563 62.302C265.395 62.482 265.227 62.746 265.059 63.094C264.903 63.43 264.711 63.826 264.483 64.282C264.207 64.834 263.937 65.296 263.673 65.668C263.409 66.028 263.127 66.316 262.827 66.532C262.539 66.736 262.197 66.88 261.801 66.964C261.417 67.048 260.961 67.09 260.433 67.09Z" fill="#FEFEFE"/>
</svg>
