<svg width="167" height="167" viewBox="0 0 167 167" fill="none" xmlns="http://www.w3.org/2000/svg">
<path fill-rule="evenodd" clip-rule="evenodd" d="M163.44 124.985C162.422 123.109 161.13 121.396 159.606 119.902C164.849 114.997 167.368 107.842 166.356 100.735C166.158 98.2024 165.449 95.7363 164.273 93.4849C160.276 85.8431 152.222 81.1996 143.606 81.5682H142.94L148.19 71.8182C149.129 70.2545 149.858 68.5732 150.356 66.8182C152.955 57.148 148.8 46.9301 140.19 41.8182C138.442 40.813 136.563 40.0558 134.606 39.5682H134.19L137.356 33.3182C138.221 31.6985 138.919 29.9953 139.44 28.2349C142.278 18.2597 137.821 7.64968 128.71 2.69461C119.599 -2.26046 108.27 -0.235863 101.44 7.56819C100.081 6.0351 98.4751 4.73953 96.6896 3.73485C91.6543 0.798343 85.6566 -0.0113407 80.0229 1.48485C73.9766 2.74123 68.7244 6.454 65.5229 11.7349L43.5229 49.9849V49.2349C41.5154 45.0414 38.2538 41.5759 34.1896 39.3182C26.1426 34.7055 16.1048 35.4191 8.79123 41.1237C1.47764 46.8283 -1.65836 56.3903 0.856271 65.3182L20.6063 121.568L31.5229 102.485L30.3563 99.0682C26.6896 88.4015 18.1063 63.6515 17.2729 60.8182C16.5689 59.1679 16.5689 57.3018 17.2729 55.6515C18.1005 53.995 19.5797 52.7572 21.3563 52.2349C23.0905 51.6572 24.9849 51.8075 26.6063 52.6515C28.2444 53.5022 29.4745 54.9724 30.0229 56.7349C30.6896 58.9015 34.6896 69.7349 37.0229 75.9849V76.9015H45.3563L78.6896 19.3182C80.4471 16.4983 84.085 15.5161 87.0229 17.0682C89.8787 18.7989 90.8695 22.4687 89.2729 25.4015L73.1896 55.3182L87.0229 63.6515L112.69 19.3182C113.466 17.6882 114.935 16.4945 116.69 16.0682C118.326 15.6544 120.06 15.8934 121.523 16.7349C122.995 17.5411 124.055 18.9346 124.44 20.5682C124.849 22.1777 124.609 23.8835 123.773 25.3182L98.1896 69.5682L111.94 77.9015L118.773 66.0682L123.856 57.7349C124.674 56.3069 126.021 55.2589 127.606 54.8182C129.279 54.397 131.052 54.6674 132.523 55.5682C133.951 56.3856 134.999 57.733 135.44 59.3182C135.863 60.9368 135.591 62.6587 134.69 64.0682L119.773 91.7349L98.9396 102.318V101.568C99.5226 97.0979 98.7075 92.5567 96.6063 88.5682C93.6746 82.8764 88.4648 78.6964 82.2729 77.0682C76.2865 75.5094 69.9252 76.4095 64.6063 79.5682C59.7113 82.086 56.0006 86.4251 54.2729 91.6515L41.0229 149.985L60.8563 139.652V139.235C60.8563 139.235 69.1896 100.735 70.4396 97.0682C70.889 95.2873 72.0283 93.7582 73.6063 92.8182C75.2071 91.9343 77.0853 91.6958 78.8563 92.1515C80.6706 92.6318 82.2075 93.8372 83.1063 95.4849C84.0294 97.0422 84.2706 98.9109 83.7729 100.652C83.1896 102.735 80.8563 113.652 79.9396 118.068L86.1896 126.402L141.69 97.7348C143.187 96.9774 144.918 96.8281 146.523 97.3182C148.143 97.8351 149.492 98.974 150.273 100.485C150.936 101.999 150.936 103.721 150.273 105.235C149.79 106.827 148.676 108.152 147.19 108.902L105.023 130.485L114.856 143.318L140.69 130.152C142.157 129.404 143.849 129.226 145.44 129.652C147.064 130.16 148.416 131.301 149.19 132.818C149.953 134.266 150.109 135.957 149.625 137.52C149.14 139.083 148.054 140.39 146.606 141.152L123.19 154.152L133.356 166.652L154.606 155.068C156.227 154.195 157.737 153.132 159.106 151.902C166.522 144.969 168.305 133.895 163.44 124.985Z" fill="white"/>
</svg>
